<?xml version="1.0" encoding="UTF-8" standalone="no"?><!DOCTYPE svg PUBLIC "-//W3C//DTD SVG 1.1//EN" "http://www.w3.org/Graphics/SVG/1.1/DTD/svg11.dtd"><svg width="100%" height="100%" viewBox="0 0 438 365" version="1.1" xmlns="http://www.w3.org/2000/svg" xmlns:xlink="http://www.w3.org/1999/xlink" xml:space="preserve" xmlns:serif="http://www.serif.com/" style="fill-rule:evenodd;clip-rule:evenodd;stroke-linejoin:round;stroke-miterlimit:2;"><g><g><path d="M383.604,348.219c-48.084,26.157 -122.83,13.087 -177.931,13.184c-48.062,0.084 -110.125,9.637 -152.078,-13.184c-89.296,-48.574 -53.385,-241.57 8.933,-301.42c64.975,-62.4 247.17,-62.398 312.145,0.003c62.316,59.847 98.225,252.843 8.931,301.417" style="fill:#fff;fill-rule:nonzero;"/><path d="M372.444,334.958c-42.645,24.378 -104.875,17.513 -153.668,17.502c-48.932,-0.012 -110.903,6.728 -153.973,-17.502c-85.328,-48.002 -49.346,-220.532 9.256,-276.365c63.457,-60.461 225.55,-60.703 289.129,0c44.871,42.841 52.05,118.624 51.854,178.092c-0.12,36.347 -9.359,79.272 -42.598,98.273" style="fill:#ed0000;fill-rule:nonzero;"/><path d="M372.433,303.389c-42.645,24.377 -104.875,17.512 -153.668,17.502c-48.932,-0.013 -110.903,6.728 -153.974,-17.502c-32.286,-18.162 -47.192,-54.157 -50.089,-94.909c-3.481,52.905 9.726,103.477 50.089,126.183c43.071,24.23 105.042,17.491 153.974,17.502c48.793,0.01 111.023,6.877 153.668,-17.502c33.239,-19.001 42.478,-61.927 42.598,-98.274c0.023,-6.839 -0.059,-13.9 -0.278,-21.096c-1.746,33.867 -12.138,70.842 -42.32,88.096" style="fill:#7a0303;fill-rule:nonzero;"/><path d="M218.632,8.096l-0.004,0c-61.977,0 -117.339,17.496 -148.097,46.801c-19.218,18.311 -36.741,49.602 -48.08,85.85c-11.763,37.608 -15.94,76.709 -11.765,110.098c5.216,41.721 23.051,72.255 51.576,88.302c29.745,16.733 67.465,18.989 100.441,18.989c9.949,-0 19.857,-0.226 29.437,-0.443c9.235,-0.211 17.958,-0.411 26.402,-0.411l0.118,-0c8.488,0.002 17.278,0.211 26.583,0.432c9.73,0.23 19.792,0.468 29.904,0.468c32.785,0 70.265,-2.262 99.633,-19.052c39.01,-22.3 44.993,-73.822 45.088,-102.549c0.289,-87.678 -17.173,-147.106 -53.385,-181.68c-30.696,-29.309 -85.966,-46.805 -147.851,-46.805m-0.004,4.942c56.348,0 112.683,15.116 144.442,45.437c44.871,42.841 52.052,118.624 51.856,178.092c-0.12,36.344 -9.359,79.272 -42.598,98.273c-27.264,15.585 -62.54,18.4 -97.181,18.4c-19.548,0 -38.888,-0.896 -56.487,-0.9l-0.118,-0c-17.441,-0 -36.541,0.854 -55.839,0.854c-34.829,-0 -70.327,-2.777 -98.019,-18.354c-85.327,-48.002 -49.343,-220.532 9.256,-276.365c31.761,-30.26 88.231,-45.437 144.688,-45.437" style="fill:#fff;fill-rule:nonzero;"/></g><path d="M289.085,129.572c0,-0 14.863,-3.437 16.096,13.71c1.232,17.143 -0,58.303 -0,58.303c-0,-0 -1.886,8.482 -16.096,6.851c-20.917,-2.396 -73.916,-8.859 -73.916,-8.859c0,-0 2.864,43.153 -14.464,43.153c3.951,-0 -89.142,-67.765 -87.112,-77.074c4.821,-21.739 64.092,-66.039 84.031,-76.091c12.035,-6.072 15.043,10.604 15.442,15.16c0.906,10.328 2.647,25.278 2.647,25.278c4.93,1.142 73.372,-0.431 73.372,-0.431Z" style="fill:#fff;fill-rule:nonzero;"/></g></svg>