<?xml version="1.0" encoding="UTF-8" standalone="no"?><!DOCTYPE svg PUBLIC "-//W3C//DTD SVG 1.1//EN" "http://www.w3.org/Graphics/SVG/1.1/DTD/svg11.dtd"><svg width="100%" height="100%" viewBox="0 0 102 102" version="1.1" xmlns="http://www.w3.org/2000/svg" xmlns:xlink="http://www.w3.org/1999/xlink" xml:space="preserve" xmlns:serif="http://www.serif.com/" style="fill-rule:evenodd;clip-rule:evenodd;stroke-linejoin:round;stroke-miterlimit:2;"><g><path d="M92.445,18.014l-45.48,-0l-6.835,82.308c1.201,0.601 2.493,1.031 3.912,1.031l48.403,-0c4.912,-0 8.908,-3.996 8.908,-8.908l-0,-65.523c-0,-4.912 -3.996,-8.908 -8.908,-8.908Z" style="fill:#ffe6b9;fill-rule:nonzero;"/><path d="M33.626,80.738l1.577,12.811c0.317,2.545 2.039,5.33 4.927,6.773c5.773,-6.21 1.903,-2.245 15.604,-16.983l-22.108,-2.601Z" style="fill:#5f3119;fill-rule:nonzero;"/><path d="M55.734,83.339c0.972,-1.11 1.824,-1.856 1.594,-3.384l-8.995,-72.152c-0.554,-4.448 -4.355,-7.803 -8.838,-7.803l-30.587,0c-4.912,0 -8.908,3.996 -8.908,8.908l0,65.523c0,4.912 3.996,8.908 8.908,8.908l46.826,-0Z" style="fill:#7f5038;fill-rule:nonzero;"/><path d="M32.802,23.37c-0.278,-1.386 -1.496,-2.387 -2.911,-2.387l-5.939,0c-1.415,0 -2.633,1.001 -2.911,2.387l-5.938,29.693c-0.322,1.609 0.721,3.172 2.328,3.494c1.627,0.333 3.175,-0.722 3.494,-2.329l1.898,-9.49l8.197,-0l1.898,9.49c0.325,1.631 1.92,2.653 3.494,2.329c1.607,-0.322 2.651,-1.885 2.329,-3.494l-5.939,-29.693Zm-8.792,15.429l2.375,-11.877l1.073,-0l2.375,11.877l-5.823,0Z" style="fill:#e6eeff;fill-rule:nonzero;"/><path d="M86.308,44.738l-8.908,-0l0,-2.97c0,-1.641 -1.328,-2.969 -2.969,-2.969c-1.641,0 -2.97,1.328 -2.97,2.969l0,2.97l-8.907,-0c-1.642,-0 -2.97,1.328 -2.97,2.969c0,1.641 1.328,2.969 2.97,2.969l0.793,0c1.689,5.421 4.17,9.662 6.955,13.006c-2.181,1.994 -4.316,3.631 -6.635,5.463c-1.279,1.023 -1.488,2.891 -0.461,4.172c1.022,1.28 2.896,1.488 4.172,0.461c2.52,-1.989 4.688,-3.653 7.053,-5.824c2.365,2.171 4.532,3.836 7.052,5.824c1.276,1.027 3.151,0.819 4.173,-0.461c1.026,-1.281 0.817,-3.149 -0.462,-4.172c-2.319,-1.832 -4.453,-3.469 -6.634,-5.463c2.784,-3.343 5.265,-7.585 6.955,-13.006l0.793,0c1.641,0 2.969,-1.328 2.969,-2.969c0,-1.641 -1.328,-2.969 -2.969,-2.969Zm-11.877,14.543c-1.888,-2.373 -3.593,-5.161 -4.875,-8.605l9.75,0c-1.283,3.444 -2.988,6.232 -4.875,8.605Z" style="fill:#5f3119;fill-rule:nonzero;"/></g></svg>