<?xml version="1.0" encoding="UTF-8" standalone="no"?><!DOCTYPE svg PUBLIC "-//W3C//DTD SVG 1.1//EN" "http://www.w3.org/Graphics/SVG/1.1/DTD/svg11.dtd"><svg width="100%" height="100%" viewBox="0 0 120 116" version="1.1" xmlns="http://www.w3.org/2000/svg" xmlns:xlink="http://www.w3.org/1999/xlink" xml:space="preserve" xmlns:serif="http://www.serif.com/" style="fill-rule:evenodd;clip-rule:evenodd;stroke-linejoin:round;stroke-miterlimit:2;"><path d="M18.766,53.259c-10.347,0 -18.766,-8.419 -18.766,-18.766l0,-15.727c0,-10.347 8.419,-18.766 18.766,-18.766l15.727,0c10.347,0 18.766,8.419 18.766,18.766l0,15.727c0,10.347 -8.419,18.766 -18.766,18.766l-15.727,0Zm-10.433,-34.493l0,15.727c0,5.754 4.68,10.433 10.433,10.433l15.727,-0c5.754,-0 10.433,-4.679 10.433,-10.433l-0,-15.727c-0,-5.753 -4.679,-10.433 -10.433,-10.433l-15.727,0c-5.753,0 -10.433,4.68 -10.433,10.433Zm92.827,-18.766c10.347,0 18.766,8.419 18.766,18.766l-0,15.727c-0,10.347 -8.419,18.766 -18.766,18.766l-15.727,0c-10.348,0 -18.766,-8.419 -18.766,-18.766l-0,-15.727c-0,-10.347 8.418,-18.766 18.766,-18.766l15.727,0Zm10.433,34.493l-0,-15.727c-0,-5.753 -4.68,-10.433 -10.433,-10.433l-15.727,0c-5.754,0 -10.433,4.68 -10.433,10.433l0,15.727c0,5.754 4.679,10.433 10.433,10.433l15.727,-0c5.753,-0 10.433,-4.679 10.433,-10.433Zm-92.827,81.266c-10.347,0 -18.766,-8.419 -18.766,-18.766l0,-15.727c0,-10.347 8.419,-18.766 18.766,-18.766l15.727,0c10.347,0 18.766,8.419 18.766,18.766l0,15.727c0,10.347 -8.419,18.766 -18.766,18.766l-15.727,0Zm-10.433,-34.493l0,15.727c0,5.754 4.68,10.433 10.433,10.433l15.727,-0c5.754,-0 10.433,-4.679 10.433,-10.433l-0,-15.727c-0,-5.753 -4.679,-10.433 -10.433,-10.433l-15.727,0c-5.753,0 -10.433,4.68 -10.433,10.433Zm84.965,-18.766c14.681,0 26.628,11.947 26.628,26.632c-0,14.681 -11.947,26.627 -26.628,26.627c-14.685,0 -26.631,-11.946 -26.631,-26.627c-0,-14.685 11.946,-26.632 26.631,-26.632Zm0,44.926c10.087,-0 18.295,-8.207 18.295,-18.294c-0,-10.091 -8.208,-18.299 -18.295,-18.299c-10.091,0 -18.298,8.208 -18.298,18.299c0,10.087 8.207,18.294 18.298,18.294Z" style="fill:#9a5131;"/></svg>