<?xml version="1.0" encoding="UTF-8" standalone="no"?>
<!DOCTYPE svg PUBLIC "-//W3C//DTD SVG 1.1//EN" "http://www.w3.org/Graphics/SVG/1.1/DTD/svg11.dtd">
<svg width="100%" height="100%" viewBox="0 0 100 80" version="1.1" xmlns="http://www.w3.org/2000/svg" xmlns:xlink="http://www.w3.org/1999/xlink" xml:space="preserve" xmlns:serif="http://www.serif.com/" style="fill-rule:evenodd;clip-rule:evenodd;stroke-linejoin:round;stroke-miterlimit:2;">
    <g transform="matrix(1,0,0,1,-13410,-6011.28)">
        <g transform="matrix(1.32031,0,0,1,-3627.49,-9.64675)">
            <g transform="matrix(0.222655,0,0,0.313236,9947.62,4100.17)">
                <path d="M13522.8,6363.91C13520.1,6365.79 13517.4,6367.59 13514.6,6369.26C13494.7,6381.13 13472,6387.4 13448.9,6387.4C13378.8,6387.4 13321.2,6329.72 13321.2,6259.62C13321.2,6258.5 13321.2,6257.38 13321.2,6256.26L13306.5,6270.93C13303.5,6274.18 13299.3,6276.03 13294.8,6276.03C13286.1,6276.03 13278.9,6268.83 13278.9,6260.08C13278.9,6255.63 13280.7,6251.38 13284,6248.36L13327.4,6205.01C13330.4,6202.02 13334.5,6200.34 13338.7,6200.34C13342.9,6200.34 13347,6202.02 13350,6205.01L13393.3,6248.44C13396.5,6251.45 13398.3,6255.63 13398.3,6259.99C13398.3,6268.74 13391.1,6275.94 13382.3,6275.94C13378,6275.94 13373.8,6274.14 13370.8,6270.98L13353.3,6253.46C13353.1,6255.52 13353.1,6257.58 13353.1,6259.64C13353.1,6312.23 13396.4,6355.51 13449,6355.51C13466.3,6355.51 13483.3,6350.8 13498.2,6341.9C13500.3,6340.64 13502.4,6339.29 13504.4,6337.9C13507.1,6335.73 13510.6,6334.55 13514.1,6334.55C13522.9,6334.55 13530.1,6341.75 13530.1,6350.5C13530.1,6355.91 13527.3,6360.97 13522.8,6363.9L13522.8,6363.91ZM13614.2,6271.01L13570.8,6314.36C13564.6,6320.54 13554.4,6320.54 13548.2,6314.36L13504.8,6270.93C13502,6267.97 13500.5,6264.03 13500.5,6259.94C13500.5,6251.19 13507.6,6243.99 13516.4,6243.99C13520.5,6243.99 13524.4,6245.57 13527.4,6248.4L13544.9,6265.93C13545,6263.87 13545.1,6261.8 13545.1,6259.74C13545.1,6207.14 13501.8,6163.86 13449.2,6163.86C13431.9,6163.86 13414.9,6168.56 13400,6177.46C13397.9,6178.7 13395.9,6180.04 13393.9,6181.46C13391.1,6183.68 13387.6,6184.89 13384,6184.89C13375.3,6184.89 13368.1,6177.69 13368.1,6168.94C13368.1,6163.48 13370.9,6158.38 13375.5,6155.46C13378.1,6153.6 13380.9,6151.82 13383.6,6150.17C13403.4,6138.28 13426.1,6132 13449.3,6132C13519.4,6132 13577,6189.68 13577,6259.77C13577,6260.88 13577,6261.99 13577,6263.1L13591.7,6248.44C13594.7,6245.37 13598.8,6243.64 13603.1,6243.64C13611.8,6243.64 13619,6250.84 13619,6259.59C13619,6263.89 13617.3,6268.01 13614.2,6271.01L13614.2,6271.01Z" style="fill:rgb(249,249,249);"/>
            </g>
        </g>
    </g>
</svg>
