<?xml version="1.0" encoding="UTF-8" standalone="no"?><!DOCTYPE svg PUBLIC "-//W3C//DTD SVG 1.1//EN" "http://www.w3.org/Graphics/SVG/1.1/DTD/svg11.dtd"><svg width="100%" height="100%" viewBox="0 0 105 105" version="1.1" xmlns="http://www.w3.org/2000/svg" xmlns:xlink="http://www.w3.org/1999/xlink" xml:space="preserve" xmlns:serif="http://www.serif.com/" style="fill-rule:evenodd;clip-rule:evenodd;stroke-linejoin:round;stroke-miterlimit:2;"><g><g><path d="M102.083,22.917l0,58.333c0,11.498 -9.335,20.833 -20.833,20.833l-58.333,0c-11.499,0 -20.834,-9.335 -20.834,-20.833l0,-58.333c0,-11.499 9.335,-20.834 20.834,-20.834l58.333,0c11.498,0 20.833,9.335 20.833,20.834Z" style="fill:#5f3119;"/><path d="M103.271,22.917c0.203,2.856 0.55,5.7 0.753,8.556c0.199,2.799 0.288,50.104 -0.041,52.692c-1.439,11.306 -11.117,20 -22.72,20.002c-57.343,0.007 -57.392,0.537 -62.399,-0.358c-10.756,-1.923 -18.863,-11.344 -18.864,-22.546c-0.007,-57.343 -0.537,-57.392 0.358,-62.399c1.902,-10.638 11.201,-18.847 22.545,-18.864c4.809,-0.007 58.005,-0.089 60.107,0.072c11.249,0.86 19.87,9.728 20.163,20.033c0.006,0.225 0.047,1.661 0.098,2.812Zm-2.375,0.001c-0.368,-8.365 -7.034,-16.13 -14.96,-18.167c-1.325,-0.341 -3.014,-0.589 -4.699,-0.589c-25.898,-0.002 -59.036,-0.036 -60.238,0.102c-10.376,1.186 -16.829,9.74 -16.832,18.666c-0.002,4.819 -0.025,59.039 0.097,60.238c0.951,9.368 8.893,16.831 18.666,16.832c57.149,0.006 57.203,0.557 62.098,-0.381c7.475,-1.433 14.959,-8.422 14.972,-18.382c0.065,-47.83 0.005,-47.831 0.143,-49.768c0.203,-2.854 0.55,-5.696 0.753,-8.551Z" style="fill:#d77a51;"/></g></g></svg>