<?xml version="1.0" encoding="UTF-8" standalone="no"?><!DOCTYPE svg PUBLIC "-//W3C//DTD SVG 1.1//EN" "http://www.w3.org/Graphics/SVG/1.1/DTD/svg11.dtd"><svg width="100%" height="100%" viewBox="0 0 576 595" version="1.1" xmlns="http://www.w3.org/2000/svg" xmlns:xlink="http://www.w3.org/1999/xlink" xml:space="preserve" xmlns:serif="http://www.serif.com/" style="fill-rule:evenodd;clip-rule:evenodd;stroke-linejoin:round;stroke-miterlimit:2;"><g><path d="M67.261,241.99c0,1.866 0.215,3.656 0.261,5.492c-39.262,13.496 -67.522,50.661 -67.522,94.497l-0,152.501c-0,55.22 44.77,99.974 99.989,99.974l375.905,-0c55.22,-0 99.974,-44.754 99.974,-99.974l0,-152.501c0,-43.836 -28.26,-81.001 -67.506,-94.497c0.031,-1.836 0.276,-3.626 0.276,-5.492c-0,-121.686 -98.995,-220.696 -220.696,-220.696c-121.686,-0 -220.681,99.01 -220.681,220.696Zm220.681,-128.893c71.071,0 128.892,57.821 128.892,128.893l-257.784,-0c-0,-71.072 57.821,-128.893 128.892,-128.893Z" style="fill:#5f3119;fill-rule:nonzero;"/><path d="M508.573,226.152c39.174,13.536 67.305,50.737 67.305,94.516l-0,152.517c-0,55.219 -44.755,99.974 -99.975,99.974l-375.92,-0c-55.204,-0 -99.974,-44.755 -99.974,-99.974l0,-152.517c0,-43.777 28.138,-80.976 67.305,-94.514c-0.044,-1.814 -0.066,-3.633 -0.066,-5.458c-0,-121.686 99.01,-220.696 220.695,-220.696c121.686,0 220.696,99.01 220.696,220.696c0,1.824 -0.022,3.643 -0.066,5.456Zm-91.737,-5.457c-0,-71.071 -57.821,-128.891 -128.893,-128.891c-71.071,-0 -128.892,57.82 -128.892,128.891l257.785,-0Z" style="fill:#7f5038;"/><path d="M241.275,393.848c0,19.08 9.731,35.91 24.481,45.779l-0,71.791l61.202,-0l0,-71.791c14.765,-9.869 24.497,-26.699 24.497,-45.779c-0,-30.418 -24.665,-55.082 -55.098,-55.082c-30.417,-0 -55.082,24.664 -55.082,55.082Z" style="fill:#5f3119;fill-rule:nonzero;"/><path d="M241.275,401.498c0,19.095 9.731,35.895 24.481,45.78l-0,71.775l61.202,-0l0,-71.775c14.765,-9.885 24.497,-26.685 24.497,-45.78c-0,-30.417 -24.665,-55.097 -55.098,-55.097c-30.417,-0 -55.082,24.68 -55.082,55.097Z" style="fill:#ffe6b9;fill-rule:nonzero;"/></g></svg>