<?xml version="1.0" encoding="UTF-8" standalone="no"?><!DOCTYPE svg PUBLIC "-//W3C//DTD SVG 1.1//EN" "http://www.w3.org/Graphics/SVG/1.1/DTD/svg11.dtd"><svg width="100%" height="100%" viewBox="0 0 103 102" version="1.1" xmlns="http://www.w3.org/2000/svg" xmlns:xlink="http://www.w3.org/1999/xlink" xml:space="preserve" xmlns:serif="http://www.serif.com/" style="fill-rule:evenodd;clip-rule:evenodd;stroke-linejoin:round;stroke-miterlimit:2;"><g><path d="M14.232,76.618l14.192,-0c1.58,-0.027 3.123,0.479 4.381,1.436l26.378,19.234c2.141,1.59 4.735,2.454 7.402,2.465c2.008,-0.01 3.986,-0.494 5.771,-1.413c4.342,-2.2 6.907,-6.397 6.907,-11.262l0,-12.979l1.377,-0.194c11.516,-1.635 20.165,-11.598 20.165,-23.23c0,-11.631 -8.649,-21.595 -20.165,-23.229l-1.377,-0.195l0,-12.979c0,-4.865 -2.566,-9.06 -6.907,-11.262c-4.329,-2.196 -9.25,-1.811 -13.173,1.052l-26.378,19.248c-1.258,0.953 -2.802,1.454 -4.381,1.422l-14.192,0c-6.926,0.01 -12.623,5.706 -12.632,12.632l0,26.622c0.01,6.926 5.706,12.622 12.632,12.632Z" style="fill:#ffe6b9;"/><path d="M77.205,29.78l-1.234,41.547c9.77,0.949 17.503,-5.657 22.972,-20.65c-1.803,-10.467 -8.414,-17.841 -21.738,-20.897Z" style="fill:#b68166;"/><path d="M8.4,37.364c0.004,-3.197 2.635,-5.826 5.832,-5.83l11.718,0l-0,38.282l-11.718,-0c-3.197,-0.003 -5.827,-2.633 -5.832,-5.83l0,-26.622Zm28.415,-8.56l26.375,-19.247c0.998,-0.728 2.202,-1.121 3.438,-1.121c3.201,0 5.835,2.634 5.835,5.835c0,0.001 0,0.001 0,0.001l0,72.806c0,0 0,0.001 0,0.001c0,3.201 -2.634,5.835 -5.835,5.835c-1.235,-0 -2.439,-0.392 -3.437,-1.12l-26.376,-19.234c-0.772,-0.569 -1.598,-1.062 -2.466,-1.472l0,-40.826c0.864,-0.41 1.69,-0.898 2.466,-1.457l0,-0.001Zm57.189,21.878c-0.016,7.81 -5.51,14.615 -13.141,16.276l0,-32.566c7.635,1.664 13.13,8.476 13.141,16.29Zm-79.772,27.536l14.192,-0c1.242,-0.028 2.456,0.37 3.439,1.129l26.377,19.233c2.414,1.791 5.339,2.763 8.345,2.773c2.259,-0.011 4.485,-0.554 6.495,-1.587c4.874,-2.471 7.783,-7.215 7.783,-12.688l0,-11.589c12.156,-1.715 21.541,-12.189 21.541,-24.807c-0.013,-12.421 -9.244,-23.059 -21.541,-24.821l0,-11.589c0,-5.473 -2.909,-10.217 -7.783,-12.689c-4.874,-2.472 -10.422,-2.029 -14.84,1.186l-26.377,19.248c-0.985,0.754 -2.199,1.148 -3.439,1.115l-14.192,-0c-7.804,0.01 -14.222,6.429 -14.232,14.232l0,26.622c0.01,7.803 6.428,14.222 14.232,14.232Z" style="fill:#7f5038;"/></g></svg>