<?xml version="1.0" encoding="UTF-8" standalone="no"?><!DOCTYPE svg PUBLIC "-//W3C//DTD SVG 1.1//EN" "http://www.w3.org/Graphics/SVG/1.1/DTD/svg11.dtd"><svg width="100%" height="100%" viewBox="0 0 94 73" version="1.1" xmlns="http://www.w3.org/2000/svg" xmlns:xlink="http://www.w3.org/1999/xlink" xml:space="preserve" xmlns:serif="http://www.serif.com/" style="fill-rule:evenodd;clip-rule:evenodd;stroke-linejoin:round;stroke-miterlimit:2;"><g><path d="M67.672,4.316c5.788,-5.755 15.217,-5.755 21.004,0c5.788,5.755 5.788,15.112 0,20.887c-2.893,2.878 -6.692,4.307 -10.492,4.326c-0.866,0 -1.319,-1.057 -0.708,-1.664c0.177,-0.176 0.433,-0.293 0.689,-0.293c3.504,-0 7.008,-1.41 9.567,-4.228c4.409,-4.855 4.389,-12.372 -0.059,-17.188c-4.981,-5.422 -13.465,-5.579 -18.623,-0.43c-1.988,1.977 -3.189,4.424 -3.602,6.988c-0.118,0.724 -0.984,1.057 -1.555,0.607l-0.02,-0.02c-0.275,-0.215 -0.413,-0.567 -0.354,-0.9c0.492,-2.995 1.87,-5.814 4.153,-8.085Z" style="fill:#7f5038;"/><path d="M15.094,34.247l1.082,-1.077c0.768,-0.763 1.359,-1.624 1.792,-2.603l4.488,-10.081c0.63,-1.41 1.516,-2.702 2.618,-3.798l7.815,-7.771c2.677,-2.663 7.027,-2.663 9.685,-0c0.748,0.743 1.299,1.624 1.614,2.564c2.677,-2.075 6.595,-1.899 9.055,0.568c0.768,0.763 1.319,1.683 1.654,2.642c2.657,-1.762 6.299,-1.487 8.642,0.842c0.728,0.724 1.259,1.586 1.594,2.506l8.543,-8.496c2.678,-2.662 7.028,-2.662 9.685,-0c2.717,2.643 2.717,6.969 0.06,9.631l-21.477,21.357l2.973,-0c1.83,-0 3.543,0.704 4.842,1.996c1.299,1.292 2.008,2.995 2.008,4.816c-0,3.739 -3.032,6.773 -6.791,6.812l-21.123,1.312c-1.948,0.117 -3.799,0.88 -5.255,2.172c1.791,2.8 1.456,6.558 -1.004,9.005l-3.76,3.739c-2.855,2.838 -7.481,2.838 -10.315,-0l-21.378,-21.2c-2.855,-2.839 -2.855,-7.439 -0,-10.258l3.76,-3.738c2.5,-2.506 6.358,-2.8 9.193,-0.94Z" style="fill:#7f5038;"/><path d="M43.716,53.509l21.181,-1.312c2.697,0 4.882,-2.172 4.882,-4.854c-0,-2.682 -2.185,-4.855 -4.882,-4.855l-7.717,0l24.843,-24.704c1.909,-1.899 1.909,-4.972 -0,-6.871c-1.91,-1.899 -5,-1.899 -6.91,0l-20.964,20.848c-0.374,0.372 -1.004,0.372 -1.398,-0c-0.394,-0.372 -0.374,-0.998 0,-1.39l10.807,-10.747c-0.157,-0.998 -0.61,-1.957 -1.378,-2.721c-1.909,-1.899 -5,-1.899 -6.909,0l-9.331,9.279c-0.354,0.352 -0.945,0.352 -1.319,-0l-0.079,-0.078c-0.354,-0.353 -0.354,-0.94 0,-1.312l8.701,-8.652c-0.157,-0.999 -0.61,-1.958 -1.378,-2.721c-1.909,-1.899 -5,-1.899 -6.909,-0l-7.166,7.106c-0.393,0.372 -1.003,0.372 -1.397,-0c-0.394,-0.372 -0.394,-0.999 -0,-1.39l6.181,-6.108c-0.158,-0.998 -0.61,-1.957 -1.378,-2.721c-1.909,-1.898 -5,-1.898 -6.909,0l-7.815,7.772c-0.926,0.92 -1.674,1.996 -2.205,3.191l-4.488,10.081c-0.532,1.194 -1.28,2.271 -2.205,3.191l-0.984,0.959l20.748,20.652c1.771,-1.566 4.015,-2.486 6.378,-2.643Z" style="fill:#ffe6b9;"/></g></svg>