<?xml version="1.0" encoding="UTF-8" standalone="no"?>
<!DOCTYPE svg PUBLIC "-//W3C//DTD SVG 1.1//EN" "http://www.w3.org/Graphics/SVG/1.1/DTD/svg11.dtd">
<svg width="100%" height="100%" viewBox="0 0 492 881" version="1.1" xmlns="http://www.w3.org/2000/svg" xmlns:xlink="http://www.w3.org/1999/xlink" xml:space="preserve" xmlns:serif="http://www.serif.com/" style="fill-rule:evenodd;clip-rule:evenodd;stroke-linejoin:round;stroke-miterlimit:2;">
    <g transform="matrix(1,0,0,1,-1610.33,-137.595)">
        <g transform="matrix(0.32944,0,0,0.32944,2748.64,71.4395)">
            <g transform="matrix(6.82044,0,0,6.82044,-8377.72,-4094.14)">
                <path d="M940.467,640.844L940.467,1010.43C940.467,1016.57 935.481,1021.56 929.34,1021.56L732.845,1021.56C726.704,1021.56 721.718,1016.57 721.718,1010.43L721.718,640.844C721.718,634.703 726.704,629.717 732.845,629.717L929.34,629.717C935.481,629.717 940.467,634.703 940.467,640.844Z" style="fill:rgb(127,80,56);"/>
                <clipPath id="_clip1">
                    <path d="M940.467,640.844L940.467,1010.43C940.467,1016.57 935.481,1021.56 929.34,1021.56L732.845,1021.56C726.704,1021.56 721.718,1016.57 721.718,1010.43L721.718,640.844C721.718,634.703 726.704,629.717 732.845,629.717L929.34,629.717C935.481,629.717 940.467,634.703 940.467,640.844Z"/>
                </clipPath>
                <g clip-path="url(#_clip1)">
                    <g transform="matrix(1,0,0,1,4.54747e-13,28.2276)">
                        <path d="M940.467,640.844L940.467,1010.43C940.467,1016.57 935.481,1021.56 929.34,1021.56L732.845,1021.56C726.704,1021.56 721.718,1016.57 721.718,1010.43L721.718,640.844C721.718,634.703 726.704,629.717 732.845,629.717L929.34,629.717C935.481,629.717 940.467,634.703 940.467,640.844Z" style="fill:rgb(255,255,229);"/>
                    </g>
                </g>
            </g>
        </g>
    </g>
</svg>
