<?xml version="1.0" encoding="UTF-8" standalone="no"?><!DOCTYPE svg PUBLIC "-//W3C//DTD SVG 1.1//EN" "http://www.w3.org/Graphics/SVG/1.1/DTD/svg11.dtd"><svg width="100%" height="100%" viewBox="0 0 2048 3963" version="1.1" xmlns="http://www.w3.org/2000/svg" xmlns:xlink="http://www.w3.org/1999/xlink" xml:space="preserve" xmlns:serif="http://www.serif.com/" style="fill-rule:evenodd;clip-rule:evenodd;stroke-linejoin:round;stroke-miterlimit:2;"><rect x="0" y="0" width="2047.96" height="3962.47" style="fill:none;"/><clipPath id="_clip1"><rect x="0" y="0" width="2047.96" height="3962.47"/></clipPath><g clip-path="url(#_clip1)"><path d="M2047.96,123.177l-0,3735.12c-0,57.491 -46.676,104.166 -104.167,104.166l-1839.63,0c-57.491,0 -104.167,-46.675 -104.167,-104.166l0,-3735.12c0,-57.491 46.676,-104.167 104.167,-104.167l1839.63,0c57.491,0 104.167,46.676 104.167,104.167Z" style="fill:#7f5038;"/><clipPath id="_clip2"><path d="M2047.96,123.177l-0,3735.12c-0,57.491 -46.676,104.166 -104.167,104.166l-1839.63,0c-57.491,0 -104.167,-46.675 -104.167,-104.166l0,-3735.12c0,-57.491 46.676,-104.167 104.167,-104.167l1839.63,0c57.491,0 104.167,46.676 104.167,104.167Z"/></clipPath><g clip-path="url(#_clip2)"><path d="M2047.96,662.449l-0,3460.12c-0,57.492 -46.676,104.167 -104.167,104.167l-1839.63,0c-57.491,0 -104.167,-46.675 -104.167,-104.167l0,-3460.12c0,-57.491 46.676,-104.167 104.167,-104.167l1839.63,0c57.491,0 104.167,46.676 104.167,104.167Z" style="fill:#ffffe5;"/></g></g></svg>