<?xml version="1.0" encoding="UTF-8" standalone="no"?><!DOCTYPE svg PUBLIC "-//W3C//DTD SVG 1.1//EN" "http://www.w3.org/Graphics/SVG/1.1/DTD/svg11.dtd"><svg width="100%" height="100%" viewBox="0 0 1486 237" version="1.1" xmlns="http://www.w3.org/2000/svg" xmlns:xlink="http://www.w3.org/1999/xlink" xml:space="preserve" xmlns:serif="http://www.serif.com/" style="fill-rule:evenodd;clip-rule:evenodd;stroke-linejoin:round;stroke-miterlimit:2;"><path d="M1485.59,41.667l0,153.186c0,22.997 -18.67,41.667 -41.666,41.667l-1402.26,-0c-22.997,-0 -41.667,-18.67 -41.667,-41.667l-0,-153.186c-0,-22.997 18.67,-41.667 41.667,-41.667l1402.26,0c22.996,0 41.666,18.67 41.666,41.667Z" style="fill:#9d674f;"/><clipPath id="_clip1"><path d="M1485.59,41.667l0,153.186c0,22.997 -18.67,41.667 -41.666,41.667l-1402.26,-0c-22.997,-0 -41.667,-18.67 -41.667,-41.667l-0,-153.186c-0,-22.997 18.67,-41.667 41.667,-41.667l1402.26,0c22.996,0 41.666,18.67 41.666,41.667Z"/></clipPath><g clip-path="url(#_clip1)"><path d="M103.473,25.52c19.067,-6.663 43.567,13.734 54.677,45.522c11.109,31.788 4.649,63.006 -14.418,69.67c-19.067,6.664 -43.566,-13.734 -54.676,-45.522c-11.11,-31.788 -4.65,-63.006 14.417,-69.67Zm-2.761,158.505c9.098,0 16.484,6.326 16.484,14.118c0,7.792 -7.386,14.118 -16.484,14.118c-9.098,0 -16.485,-6.326 -16.485,-14.118c0,-7.792 7.387,-14.118 16.485,-14.118Zm1334.42,-159.766c5.367,-0 9.725,9.682 9.725,21.608c-0,11.927 -4.358,21.609 -9.725,21.609c-5.367,0 -9.724,-9.682 -9.724,-21.609c-0,-11.926 4.357,-21.608 9.724,-21.608Zm-0.623,61.935c3.44,0 6.233,7.274 6.233,16.233c-0,8.959 -2.793,16.233 -6.233,16.233c-3.44,0 -6.233,-7.274 -6.233,-16.233c-0,-8.959 2.793,-16.233 6.233,-16.233Zm-7.45,45.626c9.623,0.704 16.529,16.111 15.411,34.385c-1.117,18.273 -9.837,32.536 -19.46,31.832c-9.624,-0.705 -16.529,-16.112 -15.412,-34.385c1.117,-18.273 9.837,-32.536 19.461,-31.832Z" style="fill:#ffe6b9;fill-opacity:0.21;"/></g></svg>